<svg xmlns="http://www.w3.org/2000/svg" width="20" height="20" viewBox="0 0 20 20">
  <g transform="translate(-376 -726)">
    <path d="M2.67,0A2.67,2.67,0,0,1,5.34,2.67V6.7A2.67,2.67,0,1,1,0,6.7V2.67A2.67,2.67,0,0,1,2.67,0Z" transform="translate(376 736.632)" fill="#087dfe"/>
    <path d="M2.67,0A2.67,2.67,0,0,1,5.34,2.67v8.618a2.67,2.67,0,0,1-5.34,0V2.67A2.67,2.67,0,0,1,2.67,0Z" transform="translate(383.33 732.042)" fill="#087dfe"/>
    <path d="M2.67,0A2.661,2.661,0,0,1,5.34,2.651v14.7a2.67,2.67,0,0,1-5.34,0V2.651A2.661,2.661,0,0,1,2.67,0Z" transform="translate(390.66 726)" fill="#087dfe"/>
    <path d="M2.67,0A2.67,2.67,0,0,1,5.34,2.67V6.7A2.67,2.67,0,1,1,0,6.7V2.67A2.67,2.67,0,0,1,2.67,0Z" transform="translate(376 726)" fill="#faf4b8"/>
    <path d="M2.529,0H2.81a2.529,2.529,0,0,1,0,5.059H2.529A2.529,2.529,0,1,1,2.529,0Z" transform="translate(383.33 726)" fill="#faf4b8"/>
  </g>
</svg>
